<svg width="123" height="44" viewBox="0 0 123 44" fill="none" xmlns="http://www.w3.org/2000/svg">
<mask id="mask0_105_2469" style="mask-type:alpha" maskUnits="userSpaceOnUse" x="0" y="2" width="40" height="40">
<rect y="2" width="40" height="40" fill="#D9D9D9"/>
</mask>
<g mask="url(#mask0_105_2469)">
<path d="M5 37V33.792L7.792 31V37H5ZM11.792 37V27.125L14.583 24.333V37H11.792ZM18.625 37V24.333L21.375 27.167V37H18.625ZM25.417 37V27.167L28.208 24.375V37H25.417ZM32.208 37V20.458L35 17.667V37H32.208ZM5 27.583V23.625L16.667 12.042L23.333 18.708L35 7V10.917L23.333 22.625L16.667 15.958L5 27.583Z" fill="#F98029"/>
</g>
<path d="M46.6392 35L50.9858 8.81818H56.5213L52.9418 30.4361H64.1662L63.3991 35H46.6392ZM71.4116 8.81818H78.2383L82.5465 26.4091H82.8533L92.9656 8.81818H99.7923L95.4457 35H90.0764L92.9144 17.9588H92.6843L83.1218 34.8722H79.4528L75.5153 17.8949H75.2979L72.4343 35H67.065L71.4116 8.81818ZM117.278 16.4247C117.32 15.3594 117.009 14.5369 116.344 13.9574C115.688 13.3778 114.695 13.0881 113.366 13.0881C112.462 13.0881 111.678 13.2159 111.013 13.4716C110.349 13.7187 109.816 14.0639 109.415 14.5071C109.023 14.9418 108.781 15.4446 108.687 16.0156C108.593 16.4844 108.623 16.8935 108.776 17.2429C108.938 17.5923 109.19 17.8949 109.531 18.1506C109.88 18.3977 110.293 18.6151 110.771 18.8026C111.248 18.9815 111.755 19.1349 112.292 19.2628L114.542 19.8253C115.641 20.081 116.63 20.4219 117.508 20.848C118.394 21.2741 119.136 21.7983 119.732 22.4205C120.337 23.0426 120.763 23.7756 121.011 24.6193C121.258 25.4631 121.292 26.4304 121.113 27.5213C120.84 29.1236 120.205 30.5128 119.208 31.6889C118.211 32.8565 116.903 33.7642 115.283 34.4119C113.664 35.0511 111.789 35.3707 109.658 35.3707C107.545 35.3707 105.759 35.0469 104.302 34.3991C102.844 33.7514 101.783 32.7926 101.119 31.5227C100.462 30.2443 100.266 28.6634 100.531 26.7798H105.887C105.793 27.6577 105.921 28.3906 106.271 28.9787C106.629 29.5582 107.161 29.9972 107.869 30.2955C108.576 30.5852 109.407 30.7301 110.362 30.7301C111.308 30.7301 112.147 30.5937 112.88 30.321C113.621 30.0483 114.222 29.669 114.683 29.1832C115.143 28.6974 115.424 28.1392 115.526 27.5085C115.629 26.9205 115.539 26.4261 115.258 26.0256C114.977 25.625 114.525 25.2841 113.903 25.0028C113.289 24.7131 112.526 24.4574 111.614 24.2358L108.879 23.5199C106.765 22.983 105.167 22.1435 104.085 21.0014C103.002 19.8594 102.614 18.321 102.921 16.3864C103.194 14.8011 103.854 13.4162 104.903 12.2315C105.96 11.0384 107.289 10.1136 108.891 9.45739C110.502 8.79261 112.262 8.46023 114.171 8.46023C116.114 8.46023 117.755 8.79687 119.093 9.47017C120.431 10.1349 121.407 11.0639 122.021 12.2571C122.634 13.4503 122.822 14.8395 122.583 16.4247H117.278Z" fill="#F98029"/>
</svg>
